<?xml version="1.0" encoding="utf-8"?>
<!-- Generator: Adobe Illustrator 22.0.1, SVG Export Plug-In . SVG Version: 6.00 Build 0)  -->
<svg version="1.1" id="Layer_1" xmlns="http://www.w3.org/2000/svg" xmlns:xlink="http://www.w3.org/1999/xlink" x="0px" y="0px"
	 viewBox="0 0 348 500" style="enable-background:new 0 0 348 500;" xml:space="preserve">
<style type="text/css">
	.st0{fill:#231F20;}
	.st1{fill:#303030;}
	.st2{fill:#1AA1A1;}
	.st3{fill:#FFFFFF;}
</style>
<g>
	<g>
		<path d="M224,386.6h-67.8v-75.4l6.5,2.7c17.8,7.5,36.9,6.5,54.4-2.8l6.9-3.7V386.6z M165.6,377.2h49v-54.4
			c-15.8,6.6-32.9,7.4-49,2.3V377.2z"/>
	</g>
	<g>
		<path d="M186.9,328.4c-9.5,0-18.8-1.9-27.9-5.7c-24.3-10.1-45.4-33.4-59.7-65.6c-1.6,0.2-3.2,0.4-4.9,0.4c-14.9,0-27-9.9-27-22.1
			c0-9.7,7.4-17.9,18.2-20.9c-3.6-17-5.4-34.7-5.4-52.7c0-13,0.9-25.8,2.8-38.2l0.6-4h206.6l0.6,4c1.9,12.5,2.8,25.4,2.8,38.2
			c0,16.7-1.6,33.1-4.7,49c13.4,1.3,23.8,10.7,23.8,22c0,12.2-12.1,22.1-27,22.1c-3.3,0-6.5-0.5-9.6-1.4
			c-13,30.8-32.3,54.2-54.6,66.1C210.4,325.4,198.8,328.4,186.9,328.4z M104.8,246l1.6,3.9c13.4,31.8,33.4,54.6,56.2,64.1
			c17.8,7.5,36.9,6.5,54.4-2.8c21.4-11.4,39.9-34.7,52.1-65.6l1.9-4.8l4.6,2.4c3,1.5,6.5,2.3,10.1,2.3c9.5,0,17.6-5.8,17.6-12.7
			c0-6.9-8.1-12.7-17.6-12.7c-0.7,0-1.5,0-2.2,0.1l-6.4,0.5l1.4-6.2c3.8-16.9,5.7-34.7,5.7-52.7c0-11-0.7-22-2.1-32.8H91.8
			c-1.4,10.7-2.1,21.7-2.1,32.8c0,19,2.1,37.6,6.2,55.3l1.2,5.2l-5.3,0.6c-8.5,0.9-15,6.3-15,12.5c0,6.9,8.1,12.7,17.6,12.7
			c2.1,0,4.3-0.3,6.4-0.9L104.8,246z"/>
	</g>
	<g>
		<path d="M219.9,348.5c0.4,1.5-19.3,23.8-29.8,23.8s-28.6-22.3-28.2-23.8C89.4,357.3,42.7,417.2,41,490.3h298.1
			C337.5,417.2,292.4,357.3,219.9,348.5z"/>
	</g>
	<g>
		<path class="st0" d="M142,252.2c-17.7,0-32.2-14.4-32.2-32.2c0-17.7,14.4-32.2,32.2-32.2c17.7,0,32.2,14.4,32.2,32.2
			C174.1,237.7,159.7,252.2,142,252.2z M142,197.3c-12.5,0-22.7,10.2-22.7,22.7c0,12.5,10.2,22.7,22.7,22.7
			c12.5,0,22.7-10.2,22.7-22.7C164.7,207.5,154.5,197.3,142,197.3z"/>
	</g>
	<g>
		<path class="st0" d="M237.2,252.2c-17.7,0-32.2-14.4-32.2-32.2c0-17.7,14.4-32.2,32.2-32.2c17.7,0,32.2,14.4,32.2,32.2
			C269.4,237.7,255,252.2,237.2,252.2z M237.2,197.3c-12.5,0-22.7,10.2-22.7,22.7c0,12.5,10.2,22.7,22.7,22.7
			c12.5,0,22.7-10.2,22.7-22.7C260,207.5,249.8,197.3,237.2,197.3z"/>
	</g>
	<g>
		<path class="st0" d="M209.8,224.7c-0.7,0-1.5-0.2-2.2-0.5c-15.5-8.2-25.7-0.8-26.1-0.4c-2.1,1.6-5,1.2-6.6-0.9
			c-1.6-2-1.2-5,0.8-6.6c0.6-0.5,15.1-11.6,36.3-0.5c2.3,1.2,3.2,4.1,2,6.4C213.1,223.8,211.5,224.7,209.8,224.7z"/>
	</g>
	<g>
		<path class="st0" d="M192.8,268.4c-8.9,0-16.6-5.2-17.1-5.5c-1.2-0.9-2-2.3-2-3.8l-1.5-81.1c-33.5-20.8-62.3,0.2-63.5,1.2
			c-2.1,1.6-5,1.1-6.6-0.9c-1.6-2.1-1.2-5,0.9-6.6c0.4-0.3,36.4-26.9,76.5-0.2c1.3,0.9,2.1,2.3,2.1,3.8l1.5,80.9
			c3.4,1.8,10.5,4.6,15.8,0.9c2.1-1.5,5.1-1,6.6,1.2c1.5,2.1,1,5.1-1.2,6.6C200.5,267.5,196.5,268.4,192.8,268.4z"/>
	</g>
	<g>
		<path d="M191.6,296.1c-18.5,0-33.6-9.3-35.5-11.2c-1.7-1.7-1.8-4.4-0.3-6.3c1.5-1.9,4.3-2.2,6.3-0.9c0.2,0.1,0.3,0.2,0.4,0.3
			c3,1.9,30.4,18.7,54.6-0.1c2.1-1.6,5-1.2,6.6,0.8c1.6,2.1,1.2,5-0.8,6.6C212.5,293.4,201.6,296.1,191.6,296.1z"/>
	</g>
	<g>
		<polygon class="st1" points="82.6,385.5 101.8,434.1 92.2,382.1 		"/>
	</g>
	<g>
		<path class="st2" d="M117.7,448.7H85.9c-3.7,0-6.7-3-6.7-6.7v-16c0-3.7,3-6.7,6.7-6.7h31.8c3.7,0,6.7,3,6.7,6.7v16
			C124.4,445.7,121.4,448.7,117.7,448.7z"/>
	</g>
	<g>
		<path class="st1" d="M135.8,490.5h-68c-3.7,0-6.7-3-6.7-6.7v-34.1c0-3.7,3-6.7,6.7-6.7h68c3.7,0,6.7,3,6.7,6.7v34.1
			C142.5,487.5,139.5,490.5,135.8,490.5z"/>
	</g>
	<g>
		<path class="st1" d="M11.5,255.6c0,0,3.4,26,56.5,70s23.7,79,23.7,79s-39.5-16.9-48.6-35L53.3,355l-21.5,4.5
			C31.8,359.5-3.2,334.7,11.5,255.6z"/>
	</g>
	<g>
		<path d="M134.2,196.8c36.4-7.9,61.1-62.2,61.1-62.2c1.3,28.6-27.3,47.8-27.3,47.8c65-14.5,63.7-43.9,63.7-43.9
			c7.8,39,40.3,43.9,40.3,43.9l2.4,49.1c2.6-15.6,58.6-54.6,54.7-133.3C304.5-7.1,207,24.1,207,24.1S135.5-22.7,77,48.8
			s-7.8,144.3,18.2,186.5l6.5-35.4L134.2,196.8z"/>
	</g>
	<g>
		<polygon class="st1" points="161,360.4 142.5,393.3 187.2,408.1 		"/>
		<path class="st3" d="M187.2,412.8c-0.5,0-1-0.1-1.5-0.2L141,397.7c-1.3-0.4-2.4-1.5-2.9-2.8c-0.5-1.3-0.4-2.8,0.3-4l18.5-32.9
			c0.8-1.5,2.4-2.4,4.1-2.4c0,0,0,0,0,0c1.7,0,3.3,0.9,4.1,2.4l26.2,47.7c0.9,1.7,0.7,3.8-0.5,5.3
			C189.9,412.2,188.5,412.8,187.2,412.8z M149.4,390.6l27.9,9.2l-16.3-29.8L149.4,390.6z"/>
	</g>
	<g>
		<path class="st1" d="M225.2,353.2l-33.9,53.5l56.6-12.3C247.8,394.3,226.2,369.7,225.2,353.2z"/>
		<path class="st3" d="M191.2,411.4c-1.5,0-3-0.7-3.9-2c-1.1-1.6-1.1-3.6-0.1-5.2l33.9-53.5c1.1-1.7,3.2-2.5,5.1-2
			c2,0.5,3.4,2.2,3.5,4.3c0.8,12.2,15.8,31.8,21.5,38.3c1.1,1.3,1.5,3,0.9,4.6c-0.5,1.6-1.8,2.8-3.5,3.1l-56.6,12.3
			C191.9,411.4,191.6,411.4,191.2,411.4z M223.3,364.9l-22.1,34.8l38-8.3C234.5,385.1,227.3,374.9,223.3,364.9z"/>
	</g>
	<g>
		<path class="st3" d="M200.5,495c-1.5,0-3-0.7-3.9-2c-19.9-28.6-11.9-81.6-11.6-83.9c0.4-2.6,2.8-4.3,5.4-3.9
			c2.6,0.4,4.3,2.8,3.9,5.4c-0.1,0.5-7.8,51.5,10,77c1.5,2.1,1,5.1-1.2,6.6C202.4,494.7,201.4,495,200.5,495z"/>
	</g>
	<g>
		<rect x="234.9" y="434.7" width="37.7" height="33.6"/>
		<path class="st3" d="M272.6,473h-37.7c-2.6,0-4.7-2.1-4.7-4.7v-33.6c0-2.6,2.1-4.7,4.7-4.7h37.7c2.6,0,4.7,2.1,4.7,4.7v33.6
			C277.4,470.9,275.3,473,272.6,473z M239.7,463.6h28.3v-24.2h-28.3V463.6z"/>
	</g>
</g>
</svg>
