<?xml version="1.0" standalone="no"?>
<!DOCTYPE svg PUBLIC "-//W3C//DTD SVG 20010904//EN"
 "http://www.w3.org/TR/2001/REC-SVG-20010904/DTD/svg10.dtd">
<svg version="1.0" xmlns="http://www.w3.org/2000/svg"
 width="459.000000pt" height="462.000000pt" viewBox="0 0 459.000000 462.000000"
 preserveAspectRatio="xMidYMid meet">

<g transform="translate(0.000000,462.000000) scale(0.100000,-0.100000)"
fill="#000000" stroke="none">
<path d="M2174 4256 c-160 -31 -260 -82 -365 -187 -113 -112 -179 -259 -179
-399 l0 -50 189 0 189 0 7 43 c16 92 68 161 159 210 35 19 57 22 151 22 105 0
113 -2 165 -31 98 -55 138 -147 110 -251 -12 -43 -34 -68 -195 -228 -161 -160
-186 -189 -222 -260 -23 -44 -50 -110 -62 -147 -27 -89 -46 -264 -32 -301 l11
-27 185 0 c214 0 197 -9 209 115 15 166 44 215 246 414 156 154 171 172 208
251 49 103 67 187 59 283 -19 250 -204 468 -452 532 -84 22 -292 28 -381 11z"/>
<path d="M2212 2507 c-125 -46 -186 -198 -128 -322 41 -89 116 -135 218 -135
98 0 175 47 220 135 28 54 28 147 0 202 -26 51 -94 110 -141 123 -47 13 -128
11 -169 -3z"/>
<path d="M1713 2107 l-91 -94 -188 -68 c-258 -92 -485 -182 -634 -250 -69 -32
-138 -60 -155 -64 -39 -8 -54 -39 -104 -225 -77 -280 -139 -591 -176 -877 -11
-89 -55 -506 -55 -525 0 -2 898 -4 1996 -4 l1996 0 -6 48 c-3 26 -10 99 -16
162 -39 414 -99 765 -191 1120 -57 224 -77 280 -103 290 -11 5 -93 40 -181 78
-207 91 -363 152 -612 242 l-202 72 -95 96 c-52 53 -97 94 -100 92 -2 -3 3
-57 11 -120 24 -174 24 -699 0 -885 -52 -403 -152 -746 -307 -1055 -28 -55
-55 -100 -60 -100 -6 0 -10 37 -10 90 l0 90 -125 0 -125 0 0 -90 c0 -56 -4
-90 -11 -90 -14 0 -130 241 -179 374 -89 242 -152 506 -187 786 -31 249 -24
762 13 968 4 18 2 32 -3 32 -6 0 -51 -42 -100 -93z m1429 -542 c-31 -33 -59
-56 -61 -51 -2 4 20 32 49 61 l52 52 -16 31 c-24 47 -19 52 8 7 l25 -40 -57
-60z m-1702 85 c-10 -18 -5 -28 39 -79 28 -32 51 -61 51 -64 0 -3 -27 23 -59
56 -59 61 -59 62 -43 89 18 32 29 30 12 -2z m60 -164 c0 -2 -34 -28 -76 -58
l-75 -53 5 -50 c3 -28 26 -131 50 -230 24 -99 43 -181 41 -183 -5 -5 -16 34
-76 267 -31 119 -47 197 -41 203 8 8 164 107 170 108 1 0 2 -2 2 -4z m1738
-73 c28 -19 52 -37 52 -41 0 -15 -109 -418 -119 -442 l-12 -25 6 25 c3 14 23
97 45 185 21 88 42 183 45 210 l6 50 -75 53 c-42 30 -76 56 -76 59 0 5 33 -15
128 -74z m452 -738 l0 -55 -245 0 -245 0 0 55 0 55 245 0 245 0 0 -55z"/>
<path d="M2226 1689 c-84 -59 -83 -59 -58 -52 17 4 26 -5 47 -46 14 -28 30
-74 35 -101 8 -43 6 -56 -17 -107 -30 -64 -32 -113 -48 -811 l-6 -302 126 0
126 0 -6 322 c-4 178 -10 415 -14 528 -7 191 -9 210 -33 262 -23 50 -25 61
-16 109 14 76 56 152 81 145 24 -6 19 -1 -65 57 -37 26 -70 47 -75 46 -4 0
-39 -23 -77 -50z"/>
</g>
</svg>
