<?xml version="1.0" encoding="utf-8"?>
<!-- Generator: Adobe Illustrator 22.0.1, SVG Export Plug-In . SVG Version: 6.00 Build 0)  -->
<svg version="1.1" xmlns="http://www.w3.org/2000/svg" xmlns:xlink="http://www.w3.org/1999/xlink" x="0px" y="0px"
	 viewBox="0 0 841.9 595.3" style="enable-background:new 0 0 841.9 595.3;" xml:space="preserve">
<style type="text/css">
	.st0{fill:#59788E;stroke:#000000;stroke-miterlimit:10;}
	.st1{fill:#FFFFFF;stroke:#000000;stroke-linecap:round;stroke-linejoin:bevel;stroke-miterlimit:10;}
	.st2{fill:#AADBF6;stroke:#000000;stroke-linecap:round;stroke-linejoin:bevel;stroke-miterlimit:10;}
	.st3{fill:none;stroke:#000000;stroke-linecap:round;stroke-linejoin:bevel;stroke-miterlimit:10;}
	.st4{fill:#CFE8F6;stroke:#000000;stroke-linecap:round;stroke-linejoin:bevel;stroke-miterlimit:10;}
	.st5{fill:#59788E;stroke:#000000;stroke-linecap:round;stroke-linejoin:bevel;stroke-miterlimit:10;}
	.st6{fill:#F9F2D7;stroke:#000000;stroke-miterlimit:10;}
	.st7{fill:#FFFFFF;stroke:#000000;stroke-miterlimit:10;}
	.st8{fill:#FFFFFF;}
	.st9{fill:none;stroke:#000000;stroke-miterlimit:10;}
	.st10{fill:none;stroke:#000000;stroke-linecap:round;stroke-linejoin:round;stroke-miterlimit:10;}
	.st11{fill:#448EC1;stroke:#000000;stroke-linecap:round;stroke-linejoin:round;stroke-miterlimit:10;}
	.st12{fill:#E4F1F9;stroke:#000000;stroke-miterlimit:10;}
	.st13{fill:#FFFFFF;stroke:#000000;stroke-linecap:round;stroke-linejoin:round;stroke-miterlimit:10;}
	.st14{fill:#E4F5FD;stroke:#000000;stroke-miterlimit:10;}
</style>
<g id="Layer_5">
	<path class="st0" d="M628.8,222.3c0.7,35.5-2.5,66.9-11.1,67c-8.5,0.2-21-27.6-21.7-63.2c-0.7-35.5,5.7-64.5,14.2-64.7
		C618.8,161.4,628.1,186.8,628.8,222.3z"/>
	<path class="st0" d="M198.6,223.9c-0.7,35.5,2.5,66.9,11.1,67c8.5,0.2,21-27.6,21.7-63.2c0.7-35.5-5.7-64.5-14.2-64.7
		C208.6,163,199.3,188.4,198.6,223.9z"/>
	<rect x="236" y="163.1" class="st1" width="357.2" height="14.3"/>
	<rect x="228.8" y="171.8" class="st1" width="372.8" height="20.2"/>
	<rect x="226.6" y="184.7" class="st1" width="378.3" height="37.3"/>
	<path class="st2" d="M133.9,226.7h-18.7c0,0-9.3,23.3,0,36h18.7v6.2l33.3-2.4v-7.4h54.7c0,0-1,12.4,4.2,14.3
		c5.2,1.9,378.8,4.1,378.8,4.1l9-1.3l5.8-12.9l34.9,3.2l3.3-3.2l31.3,5.6h5.3l3.3-6.9h8c0,0,2-13,0-12.1c-2,0.8-8,0-8,0
		s0.7-19.2-5.3-27.9l-35.3,6.7l-3.3,2.7h-34.2l-1.9-4L221.2,228l-15.2,2.7l-32.7-4l-28.8-4.7l-6.7-3.3L133.9,226.7z"/>
	<g>
		<line class="st3" x1="229.6" y1="252.1" x2="597.4" y2="252.1"/>
		<line class="st3" x1="230.6" y1="257.3" x2="597.4" y2="257.3"/>
		<line class="st3" x1="230.6" y1="262.5" x2="596.4" y2="262.5"/>
		<line class="st3" x1="230.6" y1="267.6" x2="596.4" y2="267.6"/>
	</g>
	<path class="st3" d="M121.9,226.7c0,0-13.8,17.9-1.8,36"/>
	<rect x="255" y="23.7" class="st1" width="274.4" height="255.2"/>
	<line class="st3" x1="133.9" y1="226.7" x2="133.9" y2="262.7"/>
	<path class="st3" d="M144.5,222c0,0-9.1,27-1.4,46.2"/>
	<path class="st3" d="M169.3,226.1c0,0-6.5,21.5-2.1,33.1"/>
	<line class="st3" x1="144.5" y1="242.6" x2="166" y2="242.6"/>
	<line class="st3" x1="144.5" y1="245.2" x2="165.7" y2="245.2"/>
	<line class="st3" x1="144.7" y1="248.1" x2="165.9" y2="248.1"/>
	<line class="st3" x1="144.9" y1="251.1" x2="166" y2="251.1"/>
	<line class="st3" x1="145.1" y1="254.1" x2="166.2" y2="254.1"/>
	<line class="st3" x1="145.3" y1="257" x2="166.4" y2="257"/>
	<line class="st3" x1="145.4" y1="260" x2="166.6" y2="260"/>
	<line class="st3" x1="145.6" y1="262.9" x2="166.8" y2="262.9"/>
	<line class="st3" x1="145.8" y1="265.9" x2="166.9" y2="265.9"/>
	<line class="st3" x1="118.5" y1="253" x2="133.9" y2="253"/>
	<line class="st3" x1="118.5" y1="255.3" x2="133.9" y2="255.3"/>
	<line class="st3" x1="118.5" y1="257.5" x2="133.9" y2="257.5"/>
	<line class="st3" x1="118.5" y1="259.8" x2="133.9" y2="259.8"/>
	<line class="st3" x1="118.5" y1="262" x2="133.9" y2="262"/>
	<path class="st3" d="M654.8,230.6c0,0,8.6,10.8,3.1,32.7"/>
	<path class="st3" d="M658.4,228.5c0,0,9.5,11.7,3.2,34.9"/>
	<path class="st3" d="M686.8,223.1c0,0,9.7,16.5,2.4,45.8"/>
	<path class="st3" d="M697.9,262c0,0,0.3-3.1,0-12.1"/>
	<path class="st3" d="M662,262c1.4-0.5,27.4,3.5,27.4,3.5"/>
	<line class="st3" x1="662.6" y1="259.2" x2="688.1" y2="262"/>
	<line class="st3" x1="663.8" y1="256" x2="688.1" y2="259.2"/>
	<line class="st3" x1="663.8" y1="253" x2="688.1" y2="256"/>
	<line class="st3" x1="663.8" y1="249.9" x2="688.1" y2="251"/>
	<path class="st3" d="M231.4,273.5c0,0-4-25.3,0-42.8h-8l-1.5,28.5"/>
	<polygon class="st4" points="231.4,216.3 231.4,230.6 604.9,230.6 604.3,216.3 	"/>
	<path class="st5" d="M293.8,214c-1.2,0-5.4,4.5-6.3,5.4c-3.2,3.2-2.9,7-2.9,11.2h19v-7.2l5.2-9.4C308.7,214,293.9,214,293.8,214z"
		/>
	<path class="st5" d="M490.7,214l4.1,9.1l-0.9,9.9c0,0,14.7,0,14.8,0c0.8,0,1.8-5.8,1.8-6.5c0.3-2.6-2.4-12.4-6.1-12.5
		C504.3,214,490.7,214,490.7,214z"/>
	<path class="st1" d="M629.9,122.5h25.8c0,0,6,4.5,1.6,10.5h-27.4V122.5z"/>
	<path class="st5" d="M183,214.9c-0.2,2-2,3.5-4,3.3l-10.8-1c-2-0.2-3.5-2-3.3-4l0,0c0.2-2,2-3.5,4-3.3l10.8,1
		C181.7,211.1,183.1,212.9,183,214.9L183,214.9z"/>
	<path class="st5" d="M657.3,124.2h4.7c0,0,3.2,0.8,1.8,3.6c-1.4,2.8-5.3,3.2-5.3,3.2"/>
	<path class="st1" d="M222.4,221.4c-0.3,3.1-3,5.4-6.1,5.2l-37.2-3c-3.1-0.3-5.4-3-5.2-6.1l0.7-8.7c0.3-3.1,3-5.4,6.1-5.2l37.2,3
		c3.1,0.3,5.4,3,5.2,6.1L222.4,221.4z"/>
	<path class="st5" d="M184.3,193.4c-0.2,2-2,3.5-4,3.3l-10.8-1c-2-0.2-3.5-2-3.3-4l0,0c0.2-2,2-3.5,4-3.3l10.8,1
		C183,189.6,184.5,191.4,184.3,193.4L184.3,193.4z"/>
	<path class="st5" d="M192,175.2c-0.2,2-2,3.5-4,3.3l-10.8-1c-2-0.2-3.5-2-3.3-4l0,0c0.2-2,2-3.5,4-3.3l10.8,1
		C190.7,171.4,192.2,173.2,192,175.2L192,175.2z"/>
	<path class="st1" d="M226.5,202.6c-0.3,3.1-3,5.4-6.1,5.2l-37.2-3c-3.1-0.3-5.4-3-5.2-6.1l0.7-8.7c0.3-3.1,3-5.4,6.1-5.2l37.2,3
		c3.1,0.3,5.4,3,5.2,6.1L226.5,202.6z"/>
	<path class="st1" d="M232.9,183.7c-0.3,3.1-3,5.4-6.1,5.2l-37.2-3c-3.1-0.3-5.4-3-5.2-6.1l0.7-8.7c0.3-3.1,3-5.4,6.1-5.2l37.2,3
		c3.1,0.3,5.4,3,5.2,6.1L232.9,183.7z"/>
	<path class="st1" d="M604.3,276.3c0,0,3.5-32.6,2.1-40.7l5-12.4h6.4c0,0,4.6,34.4,1.9,40.3c-2.6,5.8-5.8,12.9-5.8,12.9H604.3"/>
	<path class="st6" d="M629.9,161.5h12c0,0,17.8,60.2,12.9,127.8h-38.9c0,0,8-77.8-6.5-127.8h16.9"/>
	<path class="st6" d="M172.9,289.4l38,2c0,0-3.5-55.8,0-65.3l-38-2.9C172.9,223.1,166.4,271.2,172.9,289.4z"/>
	<path class="st5" d="M651.1,208.7h12.7c0,0,7.4,7.5,2.6,13.4H653"/>
	<path class="st1" d="M228.9,202c0,0-6.5-1-7,4.5c-0.5,5.5,0,19.5,0,19.5l1.5,4.6h8c0,0,5.5-2.1,4.5-4.6c-1-2.5,0-19.5,0-19.5
		S232.9,201.6,228.9,202z"/>
	<path class="st1" d="M600.4,209c0,0-4,5-2.8,13c1.3,8,3.8,14.5,8.8,13.5s6-4.9,6-4.9s-1.5-12.6-3-18.1S600.4,209,600.4,209z"/>
	<path class="st5" d="M200.1,231.2l-4.2-0.5c-3.6-0.4-6.9,1.9-7.3,5.3l-0.1,0.5c-0.2,0.5-0.5,1-0.7,1.6c0,0-53.6,55.2-59.3,74.4
		c-5.8,19.2-14,54.2-9.3,64c1.8,2.5,4.8,2.5,6.5-0.6c1.8-3.1,16-16.9,15-51.1c0.5-21.7,2.3-21.7,9.8-31.1c7.5-9.4,41.3-47.9,44-48.4
		c0.9-0.2,1.7-0.3,2.4-0.4l1.5,0.2c3.6,0.4,6.9-1.9,7.3-5.3l0.2-1.6C206.4,234.7,203.8,231.6,200.1,231.2z"/>
	<path class="st3" d="M596.9,230.6c0,0,3.5,22.8-1.6,40"/>
	<path class="st3" d="M406.7,257c0,0-0.6-8.6,3-8.8c3.6-0.2,3.9-0.1,7.7,0c3.8,0.1,3,8.8,3,8.8"/>
	<path class="st5" d="M649.5,167.9c0.3,2-1.1,3.9-3.1,4.2l-10.7,1.7c-2,0.3-3.9-1.1-4.2-3.1l0,0c-0.3-2,1.1-3.9,3.1-4.2l10.7-1.7
		C647.3,164.5,649.2,165.9,649.5,167.9L649.5,167.9z"/>
	<path class="st7" d="M632.4,170.4c0.3,2-0.1,3.7-0.9,3.8l-4.2,0.7c-0.8,0.1-1.7-1.4-2-3.4l0,0c-0.3-2,0.1-3.7,0.9-3.8l4.2-0.7
		C631.2,166.9,632.1,168.4,632.4,170.4L632.4,170.4z"/>
	<path class="st5" d="M629.9,124.2c0,0-7.1-4.2-7.3,13.8s1.5,18,3.6,23.5s8.4,13,6.3,17s-1.9,13.5,0,20.5s3.9,8.5,4.9,5
		s2.5-10,0-15.5s3.7-9.5,1.4-13.5s-8.9-8-8.9-13.5s0-28.5,0-28.5"/>
	<path class="st3" d="M236,163.1c0,0-7.8,1.5-12.4,6.3"/>
	<path class="st3" d="M609.4,161.5c0,0-12.6,1.5-16.2,1.5"/>
	<path class="st8" d="M401.8,257.2c0,0,0.7-11.3,11.5-12.8c8.9-1.2,10.7,14.3,11.5,16.3c0.8,2,7.8,17.3,11.7,21.3
		s27.2,11.2,27.5,12.7s-1.5,5.2-3.5,5.3s-94.5,1.3-94.3,0.3c0.2-1-0.8-4.5,1.8-6.2c2.7-1.7,24.7-10,25.5-10.7s6-13.5,6.5-15.3
		C400.5,266.3,401.8,257.2,401.8,257.2z"/>
</g>
<g id="Layer_1">
	<path class="st9" d="M571.4,420.7l-6.4,24.4l3.2,81c0,0-1.5,5.7-3.2,6.3c-1.7,0.7-0.3,2,1.3,2.3c1.7,0.3,8-3,7.7-14.3
		C573.7,509.1,571.4,420.7,571.4,420.7"/>
	<line class="st9" x1="267.1" y1="517.3" x2="276.7" y2="517.3"/>
	<line class="st9" x1="281.1" y1="517.3" x2="299.9" y2="517.1"/>
	<line class="st9" x1="266.8" y1="524.4" x2="276.2" y2="524.4"/>
	<line class="st9" x1="281.1" y1="524.4" x2="301.5" y2="524.4"/>
	<line class="st9" x1="525.6" y1="517.1" x2="543" y2="517.1"/>
	<line class="st9" x1="548.6" y1="517.1" x2="566.4" y2="517.1"/>
	<line class="st9" x1="525.4" y1="522.1" x2="542.9" y2="522.1"/>
	<line class="st9" x1="548.6" y1="522.1" x2="566.4" y2="522.1"/>
	<line class="st10" x1="278.9" y1="444.6" x2="278.9" y2="447.1"/>
	<line class="st10" x1="281.1" y1="444.8" x2="281.1" y2="447.1"/>
	<line class="st10" x1="300.3" y1="444.6" x2="300.3" y2="447.1"/>
	<line class="st10" x1="303.2" y1="444.6" x2="303.2" y2="447.1"/>
	<line class="st10" x1="320.9" y1="443.8" x2="320.9" y2="447.1"/>
	<polyline class="st10" points="324.2,443.4 324.2,449.6 323.2,450.7 	"/>
	<path class="st11" d="M325.4,399.4c0.8,0,22.5,0,22.5,0s-1.7,17,0,19.8c1.7,2.7-22.5,0.6-22.5,0.6V399.4z"/>
	<path class="st11" d="M325.4,399.4c0,0,5.5-3.7,8-3.7s20.4,0,20.4,0l-5.9,3.7"/>
	<path class="st11" d="M505.7,399.1c-0.8,0-22.5,0-22.5,0s1.7,17,0,19.8c-1.7,2.7,22.5,0.6,22.5,0.6V399.1z"/>
	<path class="st11" d="M505.7,398.7c0,0-5.5-3.7-8-3.7s-20.4,0-20.4,0l5.9,3.7"/>
	<line class="st11" x1="353.7" y1="395.8" x2="353.7" y2="419.7"/>
	<polyline class="st10" points="353.7,399.4 476.7,399.4 476.7,419.2 	"/>
	<line class="st11" x1="476.7" y1="395" x2="476.7" y2="420.2"/>
	<line class="st11" x1="353.7" y1="406.1" x2="475.7" y2="406.1"/>
	<line class="st11" x1="325.4" y1="406.1" x2="346.2" y2="406.1"/>
	<line class="st11" x1="484.3" y1="406.1" x2="505.1" y2="406.1"/>
	<g>
		<path class="st6" d="M618.6,336.9c-1.8-11.1-7.6-22.1-8.5-33.5c-0.8-10.2-2.1-21-9.5-28.8c-5.9-6.2-13.2-6.4-20.7-8.6
			c-6.9-2.1-91.7-1.4-91.7-1.4l-8.3,4.1l-51.1,0.3c2,4.2,4.3,8.4,7.1,12c4.8,6.2,26.2,11.5,28,13.5s-2.8,5.8-2.8,5.8h-95
			c0,0-0.7-0.5,0-4.3c0.7-3.8,19-7.7,26-12.2c4.2-2.7,6.2-9.7,7.7-14.6h0l-57.1,0.3l-2.8-4.1c0,0-49.7,0-77.9,0
			c-5.2,0-10.5,0-15.7,0.7c-25.4,3.1-27.9,34.1-33.5,53.2c-2,6.7-5.3,12.3-6.2,19.4c-1,7.5-0.5,15.2-0.6,22.7
			c-0.1,9.8-1,19.4-1.5,29.2c-0.6,12.3-1.2,24.6-1.8,36.8c0,0,0.7,64.8,2.1,103.4c1.4,38.6,32.4,40.7,32.4,40.7s360,0.7,372.4-2.1
			c12.4-2.8,13.1-35.2,13.1-35.2s2.8-86.9,2.8-104.1C625.4,399,623.5,367.5,618.6,336.9z"/>
		<path class="st10" d="M428.8,269c-1.2-2.5-2.3-5.1-3.4-7.6c-1.8-4.2-1.5-9.5-4.3-13.2c-3.1-4.2-9.8-4.3-13.7-1.3
			c-0.5,0.4-1,0.8-1.4,1.3c-4.8,5-3.9,13.3-5.8,19.6c-0.1,0.5-0.3,0.9-0.4,1.4l28-0.1L428.8,269z"/>
	</g>
	<path class="st10" d="M366,300.3c0,0-1.3-3,11.2-6.5s22.7-7.6,22-23.1"/>
	<path class="st10" d="M461,300.3c0,0,8.2-3.7-9.2-7.8s-22.3-9.7-21.7-19.4"/>
	<polyline class="st10" points="406.5,300.3 410.2,292.8 418.9,292.8 423.4,300.3 	"/>
	<rect x="393.5" y="290.3" class="st10" width="13" height="3.2"/>
	<polyline class="st10" points="399.2,275.8 406.5,275.8 405.6,278.8 398.2,279.3 	"/>
	<polyline class="st10" points="430.2,275.8 422.2,275.8 422.2,280.4 431.2,280.4 	"/>
	<polyline class="st10" points="421.5,278.1 407.7,278.1 407.7,281.6 411,281.6 414.1,279.3 421.5,279.3 	"/>
	<rect x="411.9" y="295.4" class="st10" width="2.3" height="2.2"/>
	<rect x="416.4" y="295.4" class="st10" width="2" height="2.2"/>
	<rect x="353.7" y="399.4" class="st11" width="123" height="6.7"/>
</g>
<g id="Layer_3">
	<path class="st9" d="M260,313.6c0,0-34.5-6.9-40,26.9c-5.5,33.8-13.1,82.1-13.1,82.1l2.8,2.8l409-0.7l4.8-0.7c0,0-11-46.2-16.6-80
		c-5.5-33.8-29-29.7-29-29.7L260,313.6z"/>
</g>
<g id="Layer_2">
	<path class="st12" d="M209,428.9c0,0,33.8-9,65.5-9s195.9-0.7,195.9-0.7l98.6,1.4c0,0,48.3,2.8,51,7.6
		c2.8,4.8-6.2,104.1-17.2,107.6c-11,3.4-68.3,4.8-78.6,4.8c-10.3,0-213.1-0.7-213.1-0.7l-5.5-2.1c0,0-55.2,0.7-64.1,0
		c-9-0.7-18.6-6.9-21.4-20.7C217.2,503.4,209,428.9,209,428.9z"/>
</g>
<g id="Layer_4">
	<path class="st10" d="M313.4,533.8l198,1c0,0,10.7-0.7,11-6c0.3-5.3,0-12.7,0-12.7l-216.7-2c0,0-1,12,1.7,15.3
		C310,532.8,313.4,533.8,313.4,533.8z"/>
	<path class="st13" d="M305.7,514.1l213.7,0.3c0,0,4.3,1.3,3,1.7c-1.3,0.3-4,2.7-9,3c-5,0.3-133.7,1.3-133.7,1.3l-65-1.7
		C314.7,518.8,310.7,518.8,305.7,514.1z"/>
	<polygon class="st9" points="390.7,526.4 390.7,530.8 435,530.4 435.7,526.1 	"/>
	<path class="st11" d="M270.4,490.5c0,0-6.4,8.6-1.6,8.9s19,0,19,0l4.8-8.9H270.4z"/>
	<path class="st10" d="M267.1,498.1c0,0-1.1,11.5,0.9,13.5c2,2,16.5,3.6,19.9-0.8v-11.5l4.8-8.9v13.8l-4.8,6.6"/>
	<path class="st11" d="M270.7,467.9c0,0-3.6,5.3-3.6,8.5h14.8l3.5-8.5H270.7z"/>
	<polyline class="st10" points="281.8,476.4 281.8,486.5 267.1,486.5 267.1,476.4 	"/>
	<polyline class="st10" points="285.3,467.9 285.3,479.9 281.8,486.5 	"/>
	<polygon class="st11" points="269.4,447.5 267.8,451.7 279.8,451.7 281.8,447.5 	"/>
	<path class="st10" d="M267.8,451.7v9c0,0,7,2,12,0v-9l2-4.3v9.9l-2,3.4"/>
	<line class="st10" x1="272.2" y1="461.6" x2="272.2" y2="467.9"/>
	<line class="st10" x1="276.7" y1="461.6" x2="276.7" y2="467.9"/>
	<line class="st10" x1="274.4" y1="486.5" x2="274.4" y2="489.9"/>
	<line class="st10" x1="277.9" y1="486.5" x2="277.9" y2="489.9"/>
	<path class="st10" d="M276.7,513.6v12.5c0,0,2.1,2.5,4.4,0v-12.5"/>
	<path class="st7" d="M299.7,489.9h16.5c0,0-1.8,8.6-5.7,9.6c-3.8,1-8.8,0-10-3.5C299.4,492.4,299.7,489.9,299.7,489.9z"/>
	<path class="st9" d="M316.2,489.9v16.3c0,0-3.4,5.2-8.3,4.8c-4.9-0.3-8.2-3-8.3-4.7c-0.1-1.7,0-16.4,0-16.4"/>
	<path class="st7" d="M324.2,489.9h15.3c0,0-0.3,7.6-3.7,8.3s-7,1-9.2-2.2C324.5,492.8,324.2,489.9,324.2,489.9z"/>
	<path class="st9" d="M339.5,489.9v17.6c0,0-3.3,3.7-7.7,3.5c-4.3-0.2-7.7-3.7-7.7-3.7v-17.4"/>
	<path class="st7" d="M347.4,489.9h15.2c0,0-0.8,5.8-3.3,7.4c-2.5,1.7-6.7,2.3-9,0C347.9,494.9,347.4,489.9,347.4,489.9z"/>
	<path class="st9" d="M362.5,489.9v15.4c0,0-3,3.8-6.3,4.5c-3.3,0.7-8.7-2-8.8-3.8c-0.2-1.8,0-16.1,0-16.1"/>
	<path class="st7" d="M370.2,489.9h16.5c0,0-1.7,6.6-4.7,7.4c-3,0.8-6,1.3-8.5-1.5C371,492.9,370.2,489.9,370.2,489.9z"/>
	<path class="st9" d="M386.7,489.9v15.6c0,0-2.5,4-7.7,4.4c-5.2,0.4-8.8-4.8-8.8-4.8v-15.3"/>
	<path class="st7" d="M393.7,489.9h16c0,0-1,8.8-5.7,8.7c-4.7-0.1-7.3-0.1-8.7-3.7S393.7,489.9,393.7,489.9z"/>
	<path class="st9" d="M409.7,489.9v16.8c0,0-3.7,3.6-8,3.3s-7.2-3.5-7.2-3.5l-0.8-16.6"/>
	<path class="st7" d="M417,489.9h15.2c0,0-2,7.6-4.5,8.1c-2.5,0.5-4.3,0.8-6.8-1.3S417,489.9,417,489.9z"/>
	<path class="st9" d="M432.2,489.9v16.3c0,0-3.3,3.5-6.7,3.8c-3.3,0.2-8.5-1.4-8.5-4.1c0-2.7-0.7-15.9-0.7-15.9"/>
	<path class="st7" d="M439.4,489.9h16c0,0-0.7,6.9-3.8,8.1c-3.2,1.2-7.8,0.8-10-3.1C439.4,490.9,439.4,489.9,439.4,489.9z"/>
	<path class="st9" d="M455.4,489.9v15.4c0,0-3.5,4.5-6.7,4.6c-3.2,0.1-8.7-1.6-9.3-5.1s0-14.9,0-14.9"/>
	<path class="st7" d="M463.8,489.9h16c0,0-1,8.8-5.7,8.7c-4.7-0.1-7.3-0.1-8.7-3.7C464.1,491.3,463.8,489.9,463.8,489.9z"/>
	<path class="st9" d="M479.8,489.9v16.8c0,0-3.7,3.6-8,3.3c-4.3-0.3-7.2-3.5-7.2-3.5l-0.8-16.6"/>
	<path class="st7" d="M487.1,489.9h15.2c0,0-2,7.6-4.5,8.1c-2.5,0.5-4.3,0.8-6.8-1.3S487.1,489.9,487.1,489.9z"/>
	<path class="st9" d="M502.3,489.9v16.3c0,0-3.3,3.5-6.7,3.8c-3.3,0.2-8.5-1.4-8.5-4.1c0-2.7-0.7-15.9-0.7-15.9"/>
	<path class="st7" d="M509.4,489.9h16c0,0-0.7,6.9-3.8,8.1c-3.2,1.2-7.8,0.8-10-3.1C509.4,490.9,509.4,489.9,509.4,489.9z"/>
	<path class="st9" d="M525.4,489.9v15.4c0,0-3.5,4.5-6.7,4.6c-3.2,0.1-8.7-1.6-9.3-5.1c-0.7-3.5,0-14.9,0-14.9"/>
	<path class="st7" d="M292.5,467.7h14.8c0,0-1.6,7.7-5.1,8.6s-7.9,0-9-3.2C292.2,470,292.5,467.7,292.5,467.7z"/>
	<path class="st9" d="M307.3,467.7v14.6c0,0-3,4.6-7.4,4.3c-4.4-0.3-7.3-2.7-7.4-4.2c-0.1-1.5,0-14.7,0-14.7"/>
	<path class="st7" d="M315.5,467.7h13.7c0,0-0.3,6.8-3.3,7.4c-3,0.6-6.3,0.9-8.2-1.9C315.8,470.3,315.5,467.7,315.5,467.7z"/>
	<path class="st7" d="M338.3,467.7h13.6c0,0-0.7,5.2-3,6.6c-2.2,1.5-6,2.1-8.1,0C338.7,472.3,338.3,467.7,338.3,467.7z"/>
	<path class="st9" d="M351.9,467.7v13.8c0,0-2.7,3.4-5.7,4c-3,0.6-7.8-1.8-7.9-3.4c-0.1-1.6,0-14.4,0-14.4"/>
	<path class="st7" d="M359.7,467.7h14.8c0,0-1.5,5.9-4.2,6.6c-2.7,0.7-5.4,1.2-7.6-1.3C360.5,470.5,359.7,467.7,359.7,467.7z"/>
	<path class="st7" d="M382.8,467.7h14.3c0,0-0.9,7.9-5.1,7.8c-4.2-0.1-6.6-0.1-7.8-3.3C383.1,469,382.8,467.7,382.8,467.7z"/>
	<path class="st9" d="M397.2,467.7v15c0,0-3.3,3.2-7.2,3c-3.9-0.3-6.4-3.1-6.4-3.1l-0.7-14.9"/>
	<path class="st7" d="M406.7,468.2h13.6c0,0-1.8,6.8-4,7.2c-2.2,0.5-3.9,0.8-6.1-1.2C407.9,472.3,406.7,468.2,406.7,468.2z"/>
	<path class="st10" d="M420.3,468.2v14.6c0,0-3,3.2-6,3.4c-3,0.2-7.6-1.3-7.6-3.7c0-2.4,0-14.3,0-14.3"/>
	<path class="st7" d="M430.1,467.7h14.3c0,0-0.6,6.2-3.4,7.2c-2.8,1.1-7,0.7-9-2.8C430.1,468.7,430.1,467.7,430.1,467.7z"/>
	<path class="st9" d="M444.4,467.7v13.8c0,0-3.1,4.1-6,4.1c-2.8,0.1-7.8-1.4-8.4-4.6c-0.6-3.1,0-13.4,0-13.4"/>
	<path class="st7" d="M453.5,467.7h14.3c0,0-0.9,7.9-5.1,7.8c-4.2-0.1-6.6-0.1-7.8-3.3C453.8,469,453.5,467.7,453.5,467.7z"/>
	<path class="st9" d="M467.9,467.7v15c0,0-3.3,3.2-7.2,3c-3.9-0.3-6.4-3.1-6.4-3.1l-0.7-14.9"/>
	<path class="st7" d="M475.7,467.7h13.6c0,0-1.8,6.8-4,7.2c-2.2,0.5-3.9,0.8-6.1-1.2C476.9,471.8,475.7,467.7,475.7,467.7z"/>
	<path class="st9" d="M489.3,467.7v14.6c0,0-3,3.2-6,3.4c-3,0.2-7.6-1.3-7.6-3.7c0-2.4-0.6-14.3-0.6-14.3"/>
	<path class="st7" d="M498.1,467.7h14.3c0,0-0.6,6.2-3.4,7.2c-2.8,1.1-7,0.7-9-2.8C498.1,468.7,498.1,467.7,498.1,467.7z"/>
	<path class="st9" d="M512.4,467.7v13.8c0,0-3.1,4.1-6,4.1c-2.8,0.1-7.8-1.4-8.4-4.6c-0.6-3.1,0-13.4,0-13.4"/>
	<path class="st7" d="M518.4,467.7h14.3c0,0-0.6,6.2-3.4,7.2c-2.8,1.1-7,0.7-9-2.8C518.4,468.7,518.4,467.7,518.4,467.7z"/>
	<path class="st9" d="M532.8,467.7v13.8c0,0-3.1,4.1-6,4.1c-2.8,0.1-7.8-1.4-8.4-4.6c-0.6-3.1,0-13.4,0-13.4"/>
	<path class="st7" d="M540.4,467.7h14.3c0,0-0.6,6.2-3.4,7.2c-2.8,1.1-7,0.7-9-2.8C540.4,468.7,540.4,467.7,540.4,467.7z"/>
	<path class="st9" d="M554.7,467.7v13.8c0,0-3.1,4.1-6,4.1c-2.8,0.1-7.8-1.4-8.4-4.6c-0.6-3.1,0-13.4,0-13.4"/>
	<path class="st7" d="M289.5,447.1h14.8c0,0-1.6,7.7-5.1,8.6c-3.4,0.9-7.9,0-9-3.2C289.2,449.4,289.5,447.1,289.5,447.1z"/>
	<path class="st9" d="M304.3,447.1v14.6c0,0-3,4.6-7.4,4.3c-4.4-0.3-7.3-2.7-7.4-4.2c-0.1-1.5,0-14.7,0-14.7"/>
	<path class="st7" d="M309.5,447.1h13.7c0,0-0.3,6.8-3.3,7.4c-3,0.6-6.3,0.9-8.2-1.9C309.8,449.7,309.5,447.1,309.5,447.1z"/>
	<path class="st9" d="M323.2,447.1v15.8c0,0-3,3.3-6.9,3.2c-3.9-0.2-6.9-3.3-6.9-3.3v-15.6"/>
	<path class="st7" d="M331.3,447.1h13.6c0,0-0.7,5.2-3,6.6c-2.2,1.5-6,2.1-8.1,0C331.7,451.7,331.3,447.1,331.3,447.1z"/>
	<path class="st7" d="M353.7,447.1h14.8c0,0-1.5,5.9-4.2,6.6c-2.7,0.7-5.4,1.2-7.6-1.3C354.5,449.9,353.7,447.1,353.7,447.1z"/>
	<path class="st9" d="M368.5,447.1v14c0,0-2.2,3.6-6.9,4c-4.6,0.4-7.9-4.3-7.9-4.3v-13.7"/>
	<path class="st7" d="M376.8,447.1h14.3c0,0-0.9,7.9-5.1,7.8c-4.2-0.1-6.6-0.1-7.8-3.3C377.1,448.4,376.8,447.1,376.8,447.1z"/>
	<path class="st9" d="M391.2,447.1v15c0,0-3.3,3.2-7.2,3c-3.9-0.3-6.4-3.1-6.4-3.1l-0.7-14.9"/>
	<path class="st7" d="M397.7,447.1h13.6c0,0-1.8,6.8-4,7.2c-2.2,0.5-3.9,0.8-6.1-1.2C398.9,451.2,397.7,447.1,397.7,447.1z"/>
	<path class="st9" d="M411.3,447.1v14.6c0,0-3,3.2-6,3.4c-3,0.2-7.6-1.3-7.6-3.7c0-2.4-0.6-14.3-0.6-14.3"/>
	<path class="st7" d="M417.8,447.1h14.3c0,0-0.6,6.2-3.4,7.2c-2.8,1.1-7,0.7-9-2.8C417.8,448.1,417.8,447.1,417.8,447.1z"/>
	<path class="st9" d="M432.1,447.1v13.8c0,0-3.1,4.1-6,4.1c-2.8,0.1-7.8-1.4-8.4-4.6c-0.6-3.1,0-13.4,0-13.4"/>
	<path class="st7" d="M436.7,447.1H451c0,0-0.9,7.9-5.1,7.8c-4.2-0.1-6.6-0.1-7.8-3.3C437,448.4,436.7,447.1,436.7,447.1z"/>
	<path class="st9" d="M451,447.1v15c0,0-3.3,3.2-7.2,3c-3.9-0.3-6.4-3.1-6.4-3.1l-0.7-14.9"/>
	<path class="st7" d="M455.6,447.1h13.6c0,0-1.8,6.8-4,7.2c-2.2,0.5-3.9,0.8-6.1-1.2C456.8,451.2,455.6,447.1,455.6,447.1z"/>
	<path class="st10" d="M469.2,447.1v14.6c0,0-3,3.2-6,3.4c-3,0.2-7.6-1.3-7.6-3.7c0-2.4-0.6-14.3-0.6-14.3"/>
	<path class="st7" d="M474.6,447.1h14.3c0,0-0.6,6.2-3.4,7.2c-2.8,1.1-7,0.7-9-2.8C474.6,448.1,474.6,447.1,474.6,447.1z"/>
	<path class="st9" d="M474.6,447.1c0,0-0.6,10.2,0,13.4c0.5,2.5,3.6,3.9,6.3,4.4c0.7,0.1,1.5,0.2,2.1,0.2c2.8-0.1,6-4.1,6-4.1v-13.8
		v-3.4"/>
	<path class="st7" d="M494.9,447.6h14.3c0,0-0.9,7.9-5.1,7.8c-4.2-0.1-6.6-0.1-7.8-3.3C495.2,448.8,494.9,447.6,494.9,447.6z"/>
	<path class="st9" d="M509.2,447.6v15c0,0-3.3,3.2-7.2,3c-3.9-0.3-6.4-3.1-6.4-3.1l-0.7-14.9"/>
	<path class="st7" d="M515.8,447.6h13.6c0,0-1.8,6.8-4,7.2c-2.2,0.5-3.9,0.8-6.1-1.2C517,451.7,515.8,447.6,515.8,447.6z"/>
	<path class="st9" d="M529.4,447.6v14.6c0,0-3,3.2-6,3.4c-3,0.2-7.6-1.3-7.6-3.7c0-2.4-0.6-14.3-0.6-14.3"/>
	<path class="st7" d="M535.8,447.6h14.3c0,0-0.6,6.2-3.4,7.2c-2.8,1.1-7,0.7-9-2.8C535.8,448.5,535.8,447.6,535.8,447.6z"/>
	<path class="st9" d="M550.2,447.6v13.8c0,0-3.1,4.1-6,4.1c-2.8,0.1-7.8-1.4-8.4-4.6c-0.6-3.1,0-13.4,0-13.4"/>
	<path class="st7" d="M272.6,425.8h14.8c0,0-1.6,7.7-5.1,8.6c-3.4,0.9-7.9,0-9-3.2C272.3,428.2,272.6,425.8,272.6,425.8z"/>
	<path class="st9" d="M287.4,425.8v14.6c0,0-3,4.6-7.4,4.3c-4.4-0.3-7.3-2.7-7.4-4.2c-0.1-1.5,0-14.7,0-14.7"/>
	<path class="st7" d="M294.6,425.8h13.7c0,0-0.3,6.8-3.3,7.4c-3,0.6-6.3,0.9-8.2-1.9C294.9,428.5,294.6,425.8,294.6,425.8z"/>
	<path class="st9" d="M308.4,425.8v15.8c0,0-3,3.3-6.9,3.2c-3.9-0.2-6.9-3.3-6.9-3.3v-15.6"/>
	<path class="st7" d="M315.4,425.8H329c0,0-0.7,5.2-3,6.6c-2.2,1.5-6,2.1-8.1,0C315.8,430.4,315.4,425.8,315.4,425.8z"/>
	<path class="st9" d="M329,425.8v13.8c0,0-2.7,3.4-5.7,4c-3,0.6-7.8-1.8-7.9-3.4c-0.1-1.6,0-14.4,0-14.4"/>
	<path class="st7" d="M335.9,425.8h14.8c0,0-1.5,5.9-4.2,6.6c-2.7,0.7-5.4,1.2-7.6-1.3C336.6,428.6,335.9,425.8,335.9,425.8z"/>
	<path class="st9" d="M350.7,425.8v14c0,0-2.2,3.6-6.9,4c-4.6,0.4-7.9-4.3-7.9-4.3v-13.7"/>
	<path class="st7" d="M356.9,425.8h14.3c0,0-0.9,7.9-5.1,7.8c-4.2-0.1-6.6-0.1-7.8-3.3C357.2,427.1,356.9,425.8,356.9,425.8z"/>
	<path class="st9" d="M371.3,425.8v15c0,0-3.3,3.2-7.2,3c-3.9-0.3-6.4-3.1-6.4-3.1l-0.7-14.9"/>
	<path class="st7" d="M377.9,425.8h13.6c0,0-1.8,6.8-4,7.2c-2.2,0.5-3.9,0.8-6.1-1.2C379,430,377.9,425.8,377.9,425.8z"/>
	<path class="st9" d="M391.4,425.8v14.6c0,0-3,3.2-6,3.4c-3,0.2-7.6-1.3-7.6-3.7c0-2.4-0.6-14.3-0.6-14.3"/>
	<path class="st7" d="M397.9,425.8h14.3c0,0-0.6,6.2-3.4,7.2c-2.8,1.1-7,0.7-9-2.8C397.9,426.8,397.9,425.8,397.9,425.8z"/>
	<path class="st9" d="M412.2,425.8v13.8c0,0-3.1,4.1-6,4.1c-2.8,0.1-7.8-1.4-8.4-4.6c-0.6-3.1,0-13.4,0-13.4"/>
	<path class="st7" d="M419.8,425.8h14.3c0,0-0.9,7.9-5.1,7.8c-4.2-0.1-6.6-0.1-7.8-3.3C420.1,427.1,419.8,425.8,419.8,425.8z"/>
	<path class="st9" d="M434.1,425.8v15c0,0-3.3,3.2-7.2,3c-3.9-0.3-6.4-3.1-6.4-3.1l-0.7-14.9"/>
	<path class="st7" d="M440.7,425.8h13.6c0,0-1.8,6.8-4,7.2c-2.2,0.5-3.9,0.8-6.1-1.2C441.9,430,440.7,425.8,440.7,425.8z"/>
	<path class="st9" d="M454.3,425.8v14.6c0,0-3,3.2-6,3.4c-3,0.2-7.6-1.3-7.6-3.7c0-2.4-0.6-14.3-0.6-14.3"/>
	<path class="st7" d="M460.7,425.8h14.3c0,0-0.6,6.2-3.4,7.2c-2.8,1.1-7,0.7-9-2.8C460.7,426.8,460.7,425.8,460.7,425.8z"/>
	<path class="st9" d="M475.1,425.8v13.8c0,0-3.1,4.1-6,4.1c-2.8,0.1-7.8-1.4-8.4-4.6c-0.6-3.1,0-13.4,0-13.4"/>
	<path class="st7" d="M479.8,425.8h14.3c0,0-0.9,7.9-5.1,7.8c-4.2-0.1-6.6-0.1-7.8-3.3C480.1,427.1,479.8,425.8,479.8,425.8z"/>
	<path class="st9" d="M494.1,425.8v15c0,0-2.3,2.2-5.3,2.8c-0.6,0.1-1.2,0.2-1.8,0.1c-3.9-0.3-6.4-3.1-6.4-3.1l-0.7-14.9"/>
	<path class="st7" d="M500.7,425.8h13.6c0,0-1.8,6.8-4,7.2c-2.2,0.5-3.9,0.8-6.1-1.2C501.9,430,500.7,425.8,500.7,425.8z"/>
	<path class="st9" d="M514.3,425.8v14.6c0,0-3,3.2-6,3.4c-3,0.2-7.6-1.3-7.6-3.7c0-2.4-0.6-14.3-0.6-14.3"/>
	<path class="st7" d="M520.7,425.8h14.3c0,0-0.6,6.2-3.4,7.2c-2.8,1.1-7,0.7-9-2.8C520.7,426.8,520.7,425.8,520.7,425.8z"/>
	<path class="st9" d="M535.1,425.8v13.8c0,0-3.1,4.1-6,4.1c-2.8,0.1-7.8-1.4-8.4-4.6c-0.6-3.1,0-13.4,0-13.4"/>
	<path class="st7" d="M543.1,425.8h14.3c0,0-0.6,6.2-3.4,7.2c-2.8,1.1-7,0.7-9-2.8C543.1,426.8,543.1,425.8,543.1,425.8z"/>
	<path class="st9" d="M557.5,425.8v13.8c0,0-3.1,4.1-6,4.1c-2.8,0.1-7.8-1.4-8.4-4.6c-0.6-3.1,0-13.4,0-13.4"/>
	<path class="st11" d="M235,444.8h16.8c0,0-1.6,10.6-4.6,12.4s-12.2,2.1-12.9-0.7C233.7,453.8,235,444.8,235,444.8z"/>
	<path class="st10" d="M251.9,444.8c0,0,0.8,1.5,0.8,4.8s-1.5,10.9-3.8,12c-2.3,1.2-9.4,0.9-10.7,0.9c-1.3,0-3.8-6-3.8-6"/>
	<path class="st11" d="M234.2,471.3h17.7c0,0-1.7,10.3-4.7,12.1c-3,1.8-13.5,1-13.7,0C233.4,482.4,230.3,482.7,234.2,471.3z"/>
	<path class="st10" d="M251.9,471.3v8.6c0,0-1,8.6-3.3,10.6c-2.3,2-10.5,2-11.8,1.5c-1.3-0.5-4.9-1.2-4.5-10.5"/>
	<path class="st11" d="M535.1,489.9h18.6c0,0,6.6,1.5,4.8,4.2c-1.9,2.8-2.3,3.6-3.8,3.6s-15.9,0.9-18-1.1S532.6,492.9,535.1,489.9z"
		/>
	<path class="st10" d="M533.9,492.9v11.8c0,0,3.5,5.1,12.4,5.3c9,0.2,11.3-4.7,11.3-4.7l1.1-12.1"/>
	<path class="st10" d="M543.6,509.7v13.5c0,0,1,0.9,2.8,1.2c1.7,0.3,2.2-1,2.2-1v-13.6"/>
	<line class="st10" x1="515.8" y1="509.5" x2="515.8" y2="514.1"/>
	<line class="st10" x1="518.8" y1="509.9" x2="518.8" y2="513.6"/>
	<line class="st10" x1="492.7" y1="509.7" x2="492.7" y2="514.1"/>
	<line class="st10" x1="495.6" y1="509.9" x2="495.6" y2="514.1"/>
	<line class="st10" x1="469.7" y1="509.5" x2="469.7" y2="514.1"/>
	<line class="st10" x1="473.7" y1="509.9" x2="473.7" y2="514.1"/>
	<line class="st10" x1="445.7" y1="509.5" x2="445.7" y2="513.6"/>
	<line class="st10" x1="449.8" y1="509.9" x2="449.8" y2="514.1"/>
	<line class="st10" x1="422.7" y1="509.7" x2="422.7" y2="513.6"/>
	<line class="st10" x1="426.6" y1="509.7" x2="426.6" y2="514.1"/>
	<line class="st10" x1="400.2" y1="509.7" x2="400.2" y2="514.3"/>
	<line class="st10" x1="404.2" y1="509.9" x2="404.2" y2="513.6"/>
	<line class="st10" x1="377.3" y1="509.9" x2="377.3" y2="514.1"/>
	<line class="st10" x1="380.4" y1="509.7" x2="380.4" y2="514.8"/>
	<line class="st10" x1="353.3" y1="509.7" x2="353.3" y2="514.6"/>
	<line class="st10" x1="357" y1="509.5" x2="357" y2="514.6"/>
	<line class="st10" x1="330" y1="510.7" x2="330" y2="514.1"/>
	<line class="st10" x1="333.7" y1="511" x2="333.7" y2="514.1"/>
	<line class="st10" x1="306.7" y1="511" x2="306.7" y2="513.6"/>
	<line class="st10" x1="309.5" y1="511" x2="309.5" y2="513.6"/>
	<path class="st11" d="M579.9,445.1h15.5c0,0,3.4,9.5,0,11c-3.4,1.4-11.1,1.6-12.6-0.7S579.9,445.1,579.9,445.1z"/>
	<path class="st10" d="M579.9,445.1c0,0-2.5,3-2.6,5s1.8,9.3,3.9,10.5s9,0.9,10.1,0.6s5-5.9,5-5.9"/>
	<path class="st11" d="M579.9,470.7h16.4c0,0,3.5,8.4,1.5,11.3s-11.1,3-13.4,0S579.9,470.7,579.9,470.7z"/>
	<path class="st10" d="M579.9,470.7l-2,6.7c0,0,2,10.1,4.1,11.3s8.1,1.9,10.8,1.1s5-7.9,5-7.9"/>
	<path class="st9" d="M264.1,531.3l34.3-0.5c0,0,3,5,18,5.7c15,0.7,204.1,0,204.1,0s5.9-3,8.9-5.7l34,0.2"/>
	<polygon class="st14" points="593.2,381.1 236.7,381.1 238.7,365.1 590.2,365.1 	"/>
	<path class="st9" d="M211.7,425.4c0,0,13.5-84.7,18-93.2s9.1-11,13.3-12c4.2-1,331,0,331,0s13.2,0,19.2,7.5s16,64.5,18,75
		s7.4,22.1,7.4,22.1"/>
	<line class="st9" x1="296.9" y1="466" x2="296.9" y2="467.7"/>
	<line class="st9" x1="299.7" y1="465.6" x2="299.7" y2="467.7"/>
	<path class="st9" d="M316.4,466l-1.1-0.1l0.2,1.8v15.6c0,0,3,3.1,6.9,3.3c3.9,0.2,6.9-3.2,6.9-3.2v-15.8"/>
	<line class="st9" x1="319.2" y1="465.6" x2="319.2" y2="467.7"/>
	<line class="st9" x1="341" y1="443.4" x2="341" y2="447.1"/>
	<path class="st9" d="M344.9,443.8v3.3v13.8c0,0-2.7,3.4-5.7,4c-1,0.2-2.2,0.1-3.3-0.3c-2.3-0.7-4.5-2.1-4.6-3.2
		c-0.1-1.6,0-14.4,0-14.4"/>
	<line class="st9" x1="362.7" y1="443.6" x2="362.7" y2="446.7"/>
	<line class="st9" x1="365.7" y1="443.8" x2="365.7" y2="446.7"/>
	<line class="st9" x1="383.3" y1="443.7" x2="383.3" y2="447.1"/>
	<line class="st9" x1="386.2" y1="443.7" x2="386.2" y2="446.7"/>
	<line class="st9" x1="404.2" y1="443.7" x2="404.2" y2="447.1"/>
	<line class="st9" x1="407" y1="443.7" x2="407" y2="447.1"/>
	<line class="st9" x1="426" y1="443.7" x2="426" y2="447.1"/>
	<line class="st9" x1="428.8" y1="443.7" x2="428.8" y2="447.1"/>
	<line class="st9" x1="446.2" y1="443.7" x2="446.2" y2="447.1"/>
	<line class="st9" x1="449" y1="443.7" x2="449" y2="447.1"/>
	<line class="st9" x1="466.5" y1="443.5" x2="466.5" y2="447.1"/>
	<line class="st9" x1="468.9" y1="443.8" x2="468.9" y2="447.1"/>
	<line class="st10" x1="486.3" y1="443.7" x2="486.3" y2="447.1"/>
	<line class="st9" x1="506.5" y1="443.7" x2="506.5" y2="447.6"/>
	<line class="st9" x1="508.8" y1="443.7" x2="508.8" y2="447.6"/>
	<line class="st9" x1="527.8" y1="443.7" x2="527.8" y2="447.6"/>
	<path class="st9" d="M530.7,443.4v4.7c0,0-1.4,0.5-1.4,0.4"/>
	<line class="st9" x1="549" y1="443.5" x2="549" y2="447.6"/>
	<path class="st9" d="M552.1,443.8v3.7c0,0-1.5,0.7-1.8,0.9"/>
	<line class="st9" x1="542.2" y1="465.3" x2="542.2" y2="467.6"/>
	<line class="st9" x1="544.9" y1="465.5" x2="544.9" y2="467.7"/>
	<line class="st9" x1="521.4" y1="465.4" x2="521.4" y2="467.6"/>
	<line class="st9" x1="524" y1="465.4" x2="524" y2="467.6"/>
	<line class="st9" x1="501.2" y1="465.6" x2="501.2" y2="467.7"/>
	<line class="st9" x1="504.3" y1="465.4" x2="504.3" y2="467.6"/>
	<line class="st9" x1="480.9" y1="467.6" x2="480.9" y2="464.9"/>
	<line class="st9" x1="484.3" y1="464.9" x2="484.3" y2="467.6"/>
	<line class="st9" x1="461.2" y1="465" x2="461.2" y2="467.6"/>
	<line class="st9" x1="463.8" y1="465" x2="463.8" y2="467.7"/>
	<line class="st9" x1="442.7" y1="464.9" x2="442.7" y2="467.7"/>
	<path class="st9" d="M445.6,465v4.1c0,0-0.8,0.4-0.9,0.4"/>
	<path class="st9" d="M423.7,464.8v4.1c0,0,1.3,1.1,2.8,0V465"/>
	<path class="st10" d="M403,464.9v3.8c0,0,1,1.6,2.6,0.3V465"/>
	<line class="st10" x1="383.2" y1="465.1" x2="383.2" y2="467.7"/>
	<line class="st10" x1="385.5" y1="465" x2="385.5" y2="467.7"/>
	<path class="st9" d="M359.7,464.9v2.8v13.7c0,0,3.3,4.6,7.9,4.3c4.6-0.4,6.9-4,6.9-4v-14"/>
	<line class="st9" x1="362.2" y1="465" x2="362.2" y2="467.7"/>
	<path class="st9" d="M336.3,464.8v4.5c0,0,1.3,1,1.8,0.1"/>
	<line class="st9" x1="339.8" y1="464.8" x2="339.8" y2="467.7"/>
	<path class="st9" d="M297.3,486.2v4.8c0,0,2.3,0.4,2.3,0.5"/>
	<line class="st9" x1="301.5" y1="486.6" x2="301.5" y2="489.9"/>
	<path class="st9" d="M320.9,486.2v4.3c0,0,1.8,1.8,3.3,0v-4"/>
	<path class="st9" d="M343.3,485.4v4.5c0,0,1.6,1.6,2.9,0l0-4.3"/>
	<path class="st9" d="M365.7,485.7v3.2c0,0,0.8,1.7,2.8,0v-3.2"/>
	<path class="st9" d="M389.2,485.6v4c0,0,1.7,1.3,3,0v-4.1"/>
	<path class="st9" d="M412.2,486v3.5c0,0,0.9,1.7,2.5,0v-3.4"/>
	<path class="st9" d="M435.7,485.3v4.2c0,0,1,1.5,2.5,0l0.2-3.9"/>
	<path class="st9" d="M459.4,485.5v4.1c0,0,1.6,1,3,0v-3.9"/>
	<path class="st9" d="M480.9,485.5v4.4c0,0,1.9,1.6,3.4,0v-4.2"/>
	<path class="st9" d="M503.7,485.3v3.7c0,0,2.1,1.9,3.5,0l0.3-3.3"/>
	<path class="st9" d="M524.7,485.5v3.6c0,0,1.8,1,3.2,0v-3.4"/>
	<polyline class="st9" points="544.9,485 544.9,489 547.4,489.6 549.6,489.6 549.6,485.7 	"/>
	<path class="st10" d="M570.4,420.7l-6.4,21.1l3.2,81c0,0-1.5,5.7-3.2,6.3c-1.7,0.7-0.3,2,1.3,2.3c1.7,0.3,8-3,7.7-14.3
		c-0.3-11.3-2.6-96.7-2.6-96.7"/>
	<path class="st10" d="M260.1,420.7l3.7,25.7l-3.4,76.7c0,0,0.4,3.6,3.4,5.9c2.9,2.3,0.3,2.3,0.3,2.3s-8.7-1.6-9-10.1
		C254.7,512.7,260.1,420.7,260.1,420.7z"/>
	<line class="st3" x1="320.2" y1="443.5" x2="320.2" y2="446.7"/>
	<polyline class="st3" points="324.2,443.4 324.2,447.5 323.2,448.9 	"/>
	<line class="st3" x1="299.6" y1="444.8" x2="299.6" y2="447.1"/>
	<path class="st1" d="M393.7,257.4c0,0,34.7-0.3,40.6,0c5.9,0.3,0.7,5.2,0,6.6c-0.7,1.4-6.3,3.7-6.3,3.7h-28.6l-5.7-4.5
		C393.7,263.2,387.5,257.4,393.7,257.4z"/>
</g>
</svg>
